<svg width="20" height="20" viewBox="0 0 20 20" fill="none" xmlns="http://www.w3.org/2000/svg">
<path fill-rule="evenodd" clip-rule="evenodd" d="M15.7143 10.9524H10.9524V15.7143C10.9524 16.2381 10.5238 16.6666 10 16.6666C9.47623 16.6666 9.04766 16.2381 9.04766 15.7143V10.9524H4.28575C3.76195 10.9524 3.33337 10.5238 3.33337 9.99998C3.33337 9.47617 3.76195 9.0476 4.28575 9.0476H9.04766V4.28569C9.04766 3.76188 9.47623 3.33331 10 3.33331C10.5238 3.33331 10.9524 3.76188 10.9524 4.28569V9.0476H15.7143C16.2381 9.0476 16.6667 9.47617 16.6667 9.99998C16.6667 10.5238 16.2381 10.9524 15.7143 10.9524Z" fill="#3C4043"/>
</svg>
