<svg width="16" height="16" viewBox="0 0 16 16" fill="none" xmlns="http://www.w3.org/2000/svg">
<path fill-rule="evenodd" clip-rule="evenodd" d="M7.99997 2.00777C7.81741 1.98266 7.6254 2.03539 7.478 2.16879L2.21101 6.93545C1.94735 7.17406 1.92603 7.58086 2.1633 7.84573C2.40228 8.1125 2.81265 8.134 3.07821 7.89368L3.47385 7.53561V12.7047V13C3.47385 13.5523 3.92157 14 4.47385 14H4.76261H11.2064H11.4951C12.0474 14 12.4951 13.5523 12.4951 13V12.7047V7.50758L12.9217 7.89368C13.1873 8.134 13.5977 8.1125 13.8366 7.84573C14.0739 7.58086 14.0526 7.17406 13.7889 6.93545L8.52194 2.16879C8.37454 2.03539 8.18253 1.98266 7.99997 2.00777ZM4.76261 6.36929V7.22798V8.18566V8.22798V10.7047V12V12.0423V12.7047H5.42953H5.47385H6.76261H9.20636H10.4951H10.5394H11.2064V12.0423V12V10.7047V8.22798V8.18566V7.22798V6.34125L7.99997 3.43945L4.76261 6.36929Z" fill="#5F6368"/>
</svg>
