<svg width="41" height="32" viewBox="0 0 41 32" fill="none" xmlns="http://www.w3.org/2000/svg">
<path d="M18.0767 31.1473C17.5305 31.6933 16.7899 32 16.0176 32C15.2453 32 14.5047 31.6933 13.9585 31.1473L0.852732 18.0415C0.306742 17.4953 2.15554e-05 16.7547 2.14879e-05 15.9824C2.14204e-05 15.2102 0.306742 14.4695 0.852732 13.9234L13.9585 0.817547C14.5078 0.287032 15.2435 -0.00652472 16.0071 0.000112791C16.7707 0.00674839 17.5012 0.313042 18.0412 0.853024C18.5812 1.39301 18.8875 2.12347 18.8941 2.8871C18.9007 3.65072 18.6072 4.3864 18.0767 4.93568L10.1928 13.07L37.8606 13.07C38.633 13.07 39.3738 13.3769 39.92 13.923C40.4662 14.4692 40.773 15.21 40.773 15.9824C40.773 16.7548 40.4662 17.4956 39.92 18.0418C39.3738 18.588 38.633 18.8948 37.8606 18.8948L10.1928 18.8948L18.0767 27.0292C18.6227 27.5753 18.9294 28.316 18.9294 29.0882C18.9294 29.8605 18.6227 30.6011 18.0767 31.1473Z" fill="#8D31E4"/>
</svg>
