<svg width="41" height="32" viewBox="0 0 41 32" fill="none" xmlns="http://www.w3.org/2000/svg">
<path d="M22.6963 31.1473C23.2425 31.6933 23.9831 32 24.7554 32C25.5277 32 26.2683 31.6933 26.8145 31.1473L39.9203 18.0415C40.4663 17.4953 40.773 16.7547 40.773 15.9824C40.773 15.2102 40.4663 14.4695 39.9203 13.9234L26.8145 0.817547C26.2652 0.287032 25.5295 -0.00652472 24.7659 0.000112791C24.0023 0.00674839 23.2718 0.313042 22.7318 0.853024C22.1918 1.39301 21.8855 2.12347 21.8789 2.8871C21.8723 3.65072 22.1658 4.3864 22.6963 4.93568L30.5802 13.07L2.9124 13.07C2.13999 13.07 1.39921 13.3769 0.853024 13.923C0.306843 14.4692 1.46783e-06 15.21 1.4003e-06 15.9824C1.33277e-06 16.7548 0.306843 17.4956 0.853024 18.0418C1.3992 18.588 2.13999 18.8948 2.9124 18.8948L30.5802 18.8948L22.6963 27.0292C22.1503 27.5753 21.8436 28.316 21.8436 29.0882C21.8436 29.8605 22.1503 30.6011 22.6963 31.1473Z" fill="#8D31E4"/>
</svg>
