<svg width="120" height="120" viewBox="0 0 120 120" fill="none" xmlns="http://www.w3.org/2000/svg">
<g clip-path="url(#clip0_0_48)">
<mask id="mask0_0_48" style="mask-type:luminance" maskUnits="userSpaceOnUse" x="0" y="0" width="120" height="120">
<path d="M120 0H0V120H120V0Z" fill="white"/>
</mask>
<g mask="url(#mask0_0_48)">
<path d="M67.8434 88.7569L34.9081 96.0257C33.0968 96.4255 31.2876 95.2705 30.8878 93.4591L20.2269 45.1541C19.8271 43.3425 20.9821 41.5334 22.7935 41.1336L55.7288 33.8648C57.5401 33.465 59.3493 34.62 59.7491 36.4316L70.41 84.7366C70.8098 86.548 69.6548 88.3571 67.8434 88.7569Z" fill="#EBEBEB"/>
<path d="M42.3804 51.6338C42.3804 51.6338 31.2878 62.2956 33.8081 70.0128C34.8022 73.0563 38.0049 74.9627 41.1656 74.4525C42.95 74.1644 44.4196 73.1937 45.4083 71.8721L46.2785 75.815L44.9063 76.1179C44.6031 76.1848 44.4116 76.4848 44.4785 76.788L44.8419 78.4345C44.9088 78.7377 45.2089 78.9295 45.5121 78.8626L51.0012 77.6511C51.3044 77.5842 51.4959 77.284 51.429 76.9808L51.0656 75.3342C50.9987 75.0311 50.6986 74.8395 50.3955 74.9064L49.0232 75.2093L48.1532 71.2672C49.6065 72.0496 51.3483 72.3109 53.088 71.8208C56.1695 70.9527 58.2718 67.8757 57.8922 64.6969C56.9297 56.6361 42.3804 51.6338 42.3804 51.6338Z" fill="#8D31E4"/>
<path d="M27.0564 44.7981C27.324 46.0107 26.5579 47.2108 25.3453 47.4784C24.1327 47.746 22.9326 46.9798 22.665 45.7673C22.3974 44.5547 23.1636 43.3546 24.3761 43.087C25.5887 42.8194 26.7888 43.5855 27.0564 44.7981Z" fill="#8D31E4"/>
<path d="M67.9722 84.1232C68.2398 85.3358 67.4736 86.5359 66.2611 86.8035C65.0485 87.0712 63.8484 86.305 63.5808 85.0924C63.3132 83.8799 64.0793 82.6798 65.2919 82.4121C66.5045 82.1445 67.7046 82.9107 67.9722 84.1232Z" fill="#8D31E4"/>
<path d="M78.6115 87.9704L44.8837 87.9704C43.0288 87.9705 41.511 86.4528 41.511 84.5977L41.511 35.1302C41.511 33.2751 43.0287 31.7576 44.8838 31.7576L78.6114 31.7575C80.4665 31.7575 81.9841 33.2752 81.9841 35.1301L81.984 84.5977C81.984 86.4528 80.4666 87.9705 78.6115 87.9704Z" fill="#CFCFCF"/>
<path d="M61.7481 46.2321C61.7481 46.2321 48.618 54.2524 49.4162 62.3315C49.7309 65.5176 52.4475 68.0695 55.6438 68.2525C57.4484 68.3556 59.0928 67.7245 60.3431 66.647L60.3431 70.6852L58.9379 70.6848C58.6274 70.6849 58.3755 70.9365 58.3755 71.247L58.3755 72.9334C58.3756 73.2439 58.6274 73.4957 58.9379 73.4956L64.5592 73.4956C64.8697 73.4956 65.1212 73.2438 65.1211 72.9334L65.1212 71.2469C65.1211 70.9365 64.8696 70.685 64.5592 70.6849L63.1537 70.6851L63.1538 66.6482C64.4045 67.7255 66.0488 68.3559 67.8535 68.2524C71.0497 68.0688 73.7654 65.517 74.0798 62.331C74.8771 54.2523 61.7481 46.2321 61.7481 46.2321Z" fill="#8D31E4"/>
<path d="M48.2568 36.2544C48.2567 37.4962 47.2501 38.5029 46.0083 38.5028C44.7664 38.503 43.7597 37.4963 43.7598 36.2545C43.7597 35.0127 44.7664 34.0059 46.0084 34.0059C47.2502 34.006 48.2569 35.0126 48.2568 36.2544Z" fill="#8D31E4"/>
<path d="M79.736 83.4733C79.7359 84.7151 78.7292 85.7218 77.4874 85.7217C76.2456 85.7219 75.2388 84.7152 75.2389 83.4734C75.2388 82.2316 76.2455 81.2248 77.4875 81.2248C78.7293 81.2249 79.7361 82.2316 79.736 83.4733Z" fill="#8D31E4"/>
<path d="M86.8194 91.6161L54.4962 81.9837C52.7185 81.4538 51.6974 79.5659 52.2272 77.7881L66.3547 30.3809C66.8846 28.6032 68.7724 27.5821 70.5503 28.1119L102.873 37.7443C104.651 38.2742 105.672 40.162 105.142 41.9399L91.015 89.3471C90.4851 91.1248 88.5972 92.1458 86.8194 91.6161Z" fill="#C7C7C7"/>
<path d="M82.5778 46.7998C82.5778 46.7998 67.7042 50.7365 66.1617 58.7069C65.5534 61.8502 67.428 65.0718 70.4391 66.1598C72.1391 66.7742 73.895 66.6388 75.4011 65.9633L74.2478 69.8331L72.901 69.4317C72.6036 69.343 72.2906 69.5123 72.2019 69.8098L71.7202 71.4261C71.6315 71.7235 71.8008 72.0365 72.0983 72.1253L77.4855 73.7306C77.783 73.8193 78.0961 73.6501 78.1847 73.3525L78.6665 71.7364C78.7551 71.4388 78.5856 71.1259 78.2881 71.0372L76.9414 70.6358L78.0944 66.7669C78.9852 68.1565 80.3811 69.2307 82.1402 69.6467C85.2558 70.3835 88.5871 68.7137 89.7985 65.7502C92.8698 58.2357 82.5778 46.7998 82.5778 46.7998Z" fill="#8D31E4"/>
<path d="M72.4985 33.3848C72.144 34.5749 70.8915 35.2523 69.7012 34.8976C68.5113 34.5429 67.834 33.2906 68.1887 32.1006C68.5432 30.9105 69.7955 30.2332 70.9856 30.5878C72.1757 30.9426 72.8531 32.1946 72.4985 33.3848Z" fill="#8D31E4"/>
<path d="M89.1814 87.6273C88.8268 88.8174 87.5744 89.4949 86.3841 89.1402C85.1942 88.7855 84.5168 87.5332 84.8715 86.3432C85.2261 85.1531 86.4786 84.4757 87.6687 84.8302C88.8588 85.1851 89.5359 86.4372 89.1814 87.6273Z" fill="#8D31E4"/>
</g>
</g>
<rect x="2" y="2" width="116" height="116" rx="30" stroke="#8D31E4" stroke-width="4"/>
<defs>
<clipPath id="clip0_0_48">
<rect width="120" height="120" rx="32" fill="white"/>
</clipPath>
</defs>
</svg>
